<?xml version="1.0" encoding="UTF-8"?>
<svg id="Layer_2" data-name="Layer 2" xmlns="http://www.w3.org/2000/svg" viewBox="0 0 138.74 118.82">
  <defs>
    <style>
      .cls-1 {
        fill: #0F2048;
      }
    </style>
  </defs>
  <g id="Layer_2-2" data-name="Layer 2">
    <g>
      <path class="cls-1" d="M28.36,73.8c-9.19,0-16.67,7.48-16.67,16.67,0,.72.58,1.3,1.3,1.3s1.3-.58,1.3-1.3c0-7.76,6.31-14.07,14.07-14.07.72,0,1.3-.58,1.3-1.3s-.58-1.3-1.3-1.3Z"/>
      <path class="cls-1" d="M137.61,82.56S116.88,17.36,116.44,15.92c-2.15-9.37-10.38-15.92-20.01-15.92-11.22,0-20.36,9.05-20.53,20.23h-13.06c-.16-11.18-9.3-20.23-20.53-20.23-9.63,0-17.85,6.54-20.01,15.92-.44,1.45-21.17,66.6-21.18,66.64-.73,2.51-1.13,5.16-1.13,7.9,0,15.64,12.72,28.36,28.36,28.36,14.27,0,26.1-10.59,28.07-24.33,0-.01.19-1.63.26-2.94.33-3.74.89-10.1,1.54-17.52.05-.06.1-.13.14-.2.71-1.42,4.81-2.93,11.01-2.93,6.2,0,10.3,1.51,11,2.93.04.07.09.13.14.19.65,7.43,1.21,13.79,1.54,17.53.02,1.28.26,2.92.26,2.94,1.96,13.73,13.8,24.33,28.07,24.33,15.64,0,28.36-12.72,28.36-28.36,0-2.74-.4-5.39-1.13-7.9ZM87.38,22.83c1.24,0,1.36,0,2.45,1.2l6.94,28.46c-1.43-.92-2.85-1.16-5.19-1.16h-44.41c-2.34,0-3.76.24-5.19,1.16l6.94-28.46c1.09-1.2,1.21-1.2,2.45-1.2h36.02ZM28.36,116.22c-14.2,0-25.76-11.56-25.76-25.76s11.56-25.76,25.76-25.76,25.76,11.56,25.76,25.76-11.56,25.76-25.76,25.76ZM55.03,80.82c-3.96-10.9-14.42-18.71-26.67-18.71-8.29,0-15.77,3.58-20.96,9.27,8.62-27.09,17.37-54.59,17.43-54.85,1.87-8.2,9.06-13.93,17.48-13.93,9.79,0,17.77,7.88,17.93,17.64h-8.88c-2.23,0-2.94.46-4.6,2.3-.14.16-.25.35-.3.56l-8.04,32.97c-.08.34-.02.71.17,1,.19.3.49.51.84.58,12.66,2.58,15.68,11.94,16.32,14.88-.25,2.82-.49,5.6-.73,8.29ZM80.81,70.7c-2.7-1.74-7.34-2.4-11.44-2.4h0c-4.1,0-8.74.66-11.44,2.4-1.23-4.03-4.98-11.99-15.75-15.06,1.64-1.57,2.55-1.71,4.98-1.71h44.41c2.43,0,3.34.13,4.98,1.71-10.77,3.07-14.52,11.04-15.75,15.06ZM82.99,72.52c.64-2.95,3.66-12.31,16.32-14.88.35-.07.65-.28.84-.58.19-.3.25-.66.17-1l-8.04-32.97c-.05-.21-.15-.4-.3-.56-1.65-1.84-2.37-2.3-4.6-2.3h-8.88c.16-9.75,8.14-17.64,17.93-17.64,8.42,0,15.61,5.73,17.48,13.93.06.26,8.81,27.75,17.43,54.85-5.19-5.69-12.66-9.27-20.96-9.27-12.25,0-22.71,7.81-26.67,18.71-.24-2.69-.48-5.47-.73-8.29ZM110.38,116.22c-14.2,0-25.76-11.56-25.76-25.76s11.56-25.76,25.76-25.76,25.76,11.56,25.76,25.76-11.56,25.76-25.76,25.76Z"/>
      <path class="cls-1" d="M110.39,73.8c-9.19,0-16.67,7.48-16.67,16.67,0,.72.58,1.3,1.3,1.3s1.3-.58,1.3-1.3c0-7.76,6.31-14.07,14.07-14.07.72,0,1.3-.58,1.3-1.3s-.58-1.3-1.3-1.3Z"/>
      <circle class="cls-1" cx="69.37" cy="59.98" r="2.27"/>
    </g>
  </g>
</svg>