<?xml version="1.0" encoding="UTF-8"?>
<svg id="Layer_2" data-name="Layer 2" xmlns="http://www.w3.org/2000/svg" viewBox="0 0 126.02 126.02">
  <defs>
    <style>
      .cls-1 {
        fill: #0F2048;
      }
    </style>
  </defs>
  <g id="Layer_2-2" data-name="Layer 2">
    <g>
      <g>
        <path class="cls-1" d="M66.03,65.01h-6.04c-.51,0-.98-.3-1.19-.77l-3.76-8.44c-.97-.33-1.93-.73-2.86-1.19l-8.63,3.31c-.48.18-1.02.07-1.38-.29l-4.27-4.27c-.36-.36-.48-.9-.29-1.38l3.31-8.63c-.46-.94-.86-1.9-1.19-2.87l-8.44-3.76c-.47-.21-.77-.67-.77-1.19v-6.04c0-.51.3-.98.77-1.19l8.44-3.76c.33-.97.73-1.93,1.19-2.86l-3.31-8.63c-.18-.48-.07-1.02.29-1.38l4.27-4.27c.36-.36.91-.48,1.38-.29l8.63,3.31c.93-.46,1.89-.86,2.87-1.19l3.76-8.44c.21-.47.67-.77,1.19-.77h6.04c.51,0,.98.3,1.19.77l3.76,8.44c.97.33,1.93.73,2.86,1.19l8.63-3.31c.48-.18,1.02-.07,1.38.29l4.27,4.27c.36.36.48.9.29,1.38l-3.31,8.63c.46.94.86,1.9,1.19,2.86l8.44,3.76c.47.21.77.67.77,1.19v6.04c0,.51-.3.98-.77,1.19l-8.44,3.76c-.33.97-.73,1.93-1.19,2.86l3.31,8.63c.18.48.07,1.02-.29,1.38l-4.27,4.27c-.36.36-.9.48-1.38.29l-8.63-3.31c-.94.46-1.9.86-2.86,1.19l-3.76,8.44c-.21.47-.67.77-1.19.77ZM60.83,62.41h4.36l3.65-8.19c.15-.34.44-.6.8-.71,1.19-.38,2.38-.87,3.53-1.47.33-.17.72-.19,1.07-.06l8.38,3.22,3.08-3.08-3.21-8.38c-.13-.35-.11-.74.06-1.07.6-1.14,1.09-2.33,1.47-3.53.11-.35.37-.64.71-.8l8.19-3.65v-4.36l-8.19-3.65c-.34-.15-.6-.44-.71-.8-.38-1.2-.87-2.39-1.47-3.53-.17-.33-.19-.72-.06-1.07l3.21-8.38-3.08-3.08-8.38,3.21c-.35.13-.74.11-1.07-.06-1.14-.6-2.33-1.09-3.53-1.47-.35-.11-.64-.37-.8-.71l-3.65-8.19h-4.36l-3.65,8.19c-.15.34-.44.6-.8.71-1.2.38-2.39.87-3.53,1.47-.33.17-.72.19-1.07.06l-8.38-3.21-3.08,3.08,3.21,8.38c.13.35.11.74-.06,1.07-.6,1.15-1.09,2.34-1.47,3.53-.11.35-.37.64-.71.8l-8.19,3.65v4.36l8.19,3.65c.34.15.6.44.71.8.38,1.2.87,2.39,1.47,3.54.17.33.19.72.06,1.06l-3.21,8.38,3.08,3.08,8.38-3.21c.35-.13.74-.11,1.07.06,1.14.6,2.33,1.09,3.53,1.47.35.11.64.37.8.71l3.65,8.19Z"/>
        <path class="cls-1" d="M63.01,45.31c-7.06,0-12.81-5.74-12.81-12.81s5.74-12.81,12.81-12.81,12.81,5.75,12.81,12.81-5.75,12.81-12.81,12.81ZM63.01,22.29c-5.63,0-10.21,4.58-10.21,10.21s4.58,10.21,10.21,10.21,10.21-4.58,10.21-10.21-4.58-10.21-10.21-10.21Z"/>
      </g>
      <path class="cls-1" d="M95.78,126.02c-13.2,0-24.95-9.25-32.77-17.44-7.82,8.19-19.58,17.44-32.77,17.44-16.67,0-30.24-13.56-30.24-30.24s13.56-30.24,30.24-30.24c13.2,0,24.95,9.25,32.77,17.44,7.82-8.19,19.57-17.44,32.77-17.44,16.67,0,30.24,13.56,30.24,30.24s-13.56,30.24-30.24,30.24ZM63.99,105.83c6.1,6.58,18.33,17.59,31.8,17.59,15.24,0,27.64-12.4,27.64-27.64s-12.4-27.64-27.64-27.64c-12.93,0-24.72,10.16-31.04,16.79l7.32,8.86c4.66-5.04,14.45-14.27,23.72-14.27s16.25,7.29,16.25,16.25-7.29,16.25-16.25,16.25c-10,0-20.63-10.76-24.73-15.39,0,0-.02-.02-.02-.03,0,0,0,0,0,0h0s0,0,0-.01l-8.98-10.87c-6.1-6.58-18.33-17.59-31.8-17.59-15.24,0-27.64,12.4-27.64,27.64s12.4,27.64,27.64,27.64c12.93,0,24.72-10.16,31.04-16.79l-7.32-8.86c-4.66,5.04-14.45,14.27-23.72,14.27s-16.25-7.29-16.25-16.25,7.29-16.25,16.25-16.25c10,0,20.63,10.76,24.73,15.39.01.01.02.03.03.04l8.98,10.87ZM73.77,95.78c3.78,4.11,13.48,13.65,22.01,13.65,7.53,0,13.65-6.13,13.65-13.65s-6.13-13.65-13.65-13.65c-8.53,0-18.23,9.55-22.01,13.65ZM30.24,82.13c-7.53,0-13.65,6.13-13.65,13.65s6.13,13.65,13.65,13.65c8.53,0,18.23-9.55,22.01-13.65-3.78-4.11-13.48-13.65-22.01-13.65Z"/>
    </g>
  </g>
</svg>