<?xml version="1.0" encoding="UTF-8"?>
<svg id="Layer_2" data-name="Layer 2" xmlns="http://www.w3.org/2000/svg" viewBox="0 0 119.53 119.53">
  <defs>
    <style>
      .cls-1 {
        fill: #0F2048;
      }
    </style>
  </defs>
  <g id="Layer_2-2" data-name="Layer 2">
    <g>
      <path class="cls-1" d="M118.23,110.76c-.72,0-1.3.58-1.3,1.3v4.87h-26.63v-4.87c0-.72-.58-1.3-1.3-1.3s-1.3.58-1.3,1.3v4.87h-26.63v-4.87c0-.72-.58-1.3-1.3-1.3s-1.3.58-1.3,1.3v4.87h-26.63v-4.87c0-.72-.58-1.3-1.3-1.3s-1.3.58-1.3,1.3v4.87H2.6V1.3c0-.72-.58-1.3-1.3-1.3S0,.58,0,1.3v116.93c0,.72.58,1.3,1.3,1.3h116.93c.72,0,1.3-.58,1.3-1.3v-6.17c0-.72-.58-1.3-1.3-1.3Z"/>
      <path class="cls-1" d="M64.41,19.32h5.8c.72,0,1.3-.58,1.3-1.3s-.58-1.3-1.3-1.3h-5.8c-.72,0-1.3.58-1.3,1.3s.58,1.3,1.3,1.3Z"/>
      <path class="cls-1" d="M47.52,19.32h5.8c.72,0,1.3-.58,1.3-1.3s-.58-1.3-1.3-1.3h-5.8c-.72,0-1.3.58-1.3,1.3s.58,1.3,1.3,1.3Z"/>
      <path class="cls-1" d="M30.63,19.32h5.8c.72,0,1.3-.58,1.3-1.3s-.58-1.3-1.3-1.3h-5.8c-.72,0-1.3.58-1.3,1.3s.58,1.3,1.3,1.3Z"/>
      <path class="cls-1" d="M13.74,19.32h5.8c.72,0,1.3-.58,1.3-1.3s-.58-1.3-1.3-1.3h-5.8c-.72,0-1.3.58-1.3,1.3s.58,1.3,1.3,1.3Z"/>
      <path class="cls-1" d="M13.18,99.23c7.78,0,10.37-9.25,12.66-17.41,1.56-5.58,3.18-11.35,5.99-11.35,2.44,0,3.69,4.4,5.14,9.49,2.32,8.13,5.49,19.27,16.99,19.27,14.24,0,18.72-16.52,21.05-34.89,4.09-.26,7.34-3.66,7.34-7.82,0-3.6-2.43-6.63-5.74-7.55,1.45-15.39,2.92-29.65,8.96-29.65,6.56,0,8.91,16.8,11.18,33.05,3.07,21.97,6.56,46.86,21.47,46.86.72,0,1.3-.58,1.3-1.3s-.58-1.3-1.3-1.3c-12.65,0-15.96-23.71-18.89-44.62-2.65-18.93-4.94-35.29-13.76-35.29s-9.92,14.7-11.54,31.97c-4.1.25-7.37,3.66-7.37,7.82,0,3.6,2.45,6.64,5.76,7.56-2.19,17.22-6.26,32.56-18.46,32.56-9.54,0-12.17-9.24-14.49-17.38-1.74-6.11-3.24-11.38-7.64-11.38-4.78,0-6.58,6.43-8.49,13.25-2.14,7.63-4.35,15.52-10.16,15.52-.72,0-1.3.58-1.3,1.3s.58,1.3,1.3,1.3ZM69.26,56.51c0-2.89,2.35-5.25,5.25-5.25s5.25,2.35,5.25,5.25-2.35,5.25-5.25,5.25-5.25-2.35-5.25-5.25Z"/>
    </g>
  </g>
</svg>