<?xml version="1.0" encoding="UTF-8"?>
<svg id="Layer_2" data-name="Layer 2" xmlns="http://www.w3.org/2000/svg" viewBox="0 0 132.74 122.77">
  <defs>
    <style>
      .cls-1 {
        fill: #0F2048;
      }
    </style>
  </defs>
  <g id="Layer_2-2" data-name="Layer 2">
    <g>
      <circle class="cls-1" cx="83.83" cy="58.01" r="2.27" transform="translate(-8.23 14.22) rotate(-9.25)"/>
      <circle class="cls-1" cx="73.15" cy="58.01" r="2.27"/>
      <path class="cls-1" d="M62.46,60.28c1.25,0,2.27-1.02,2.27-2.27s-1.02-2.27-2.27-2.27-2.27,1.02-2.27,2.27,1.02,2.27,2.27,2.27Z"/>
      <path class="cls-1" d="M36.02,59.81c.26.28.61.42.96.42.31,0,.63-.11.88-.34.53-.49.56-1.31.08-1.84l-8.44-9.19,8.44-9.19c.49-.53.45-1.35-.08-1.84-.53-.49-1.35-.45-1.84.08l-9.24,10.07c-.46.5-.46,1.26,0,1.76l9.24,10.07Z"/>
      <path class="cls-1" d="M94.88,59.89c.25.23.56.34.88.34.35,0,.7-.14.96-.42l9.24-10.07c.46-.5.46-1.26,0-1.76l-9.24-10.07c-.48-.53-1.31-.56-1.84-.08-.53.49-.56,1.31-.08,1.84l8.44,9.19-8.44,9.19c-.49.53-.45,1.35.08,1.84Z"/>
      <path class="cls-1" d="M47.85,60.08c.19.1.4.15.61.15.47,0,.92-.25,1.15-.69l10.62-20.13c.33-.63.09-1.42-.54-1.76-.64-.33-1.42-.09-1.76.54l-10.62,20.13c-.33.63-.09,1.42.54,1.76Z"/>
      <path class="cls-1" d="M121.69,0H11.04C4.95,0,0,4.95,0,11.04v75.65c0,6.09,4.95,11.04,11.04,11.04h43.87v8.03l-14.99,7.29c-.45.22-.73.67-.73,1.17v7.24c0,.72.58,1.3,1.3,1.3h51.75c.72,0,1.3-.58,1.3-1.3v-7.24c0-.5-.28-.95-.73-1.17l-14.99-7.29v-8.03h43.87c6.09,0,11.04-4.95,11.04-11.04V11.04c0-6.09-4.95-11.04-11.04-11.04ZM90.94,115.05v5.13h-49.15v-5.13l14.99-7.29c.45-.22.73-.67.73-1.17v-8.85h17.72v8.85c0,.5.28.95.73,1.17l14.99,7.29ZM130.14,86.69c0,4.66-3.79,8.44-8.44,8.44H11.04c-4.66,0-8.44-3.79-8.44-8.44V11.04C2.6,6.39,6.39,2.6,11.04,2.6h110.65c4.66,0,8.44,3.79,8.44,8.44v75.65Z"/>
      <path class="cls-1" d="M120.75,10.68H11.98c-.72,0-1.3.58-1.3,1.3v73.77c0,.72.58,1.3,1.3,1.3h108.77c.72,0,1.3-.58,1.3-1.3V11.98c0-.72-.58-1.3-1.3-1.3ZM119.45,84.46H13.28V13.28h106.17v71.18Z"/>
    </g>
  </g>
</svg>